HIERARCHY
ROOT mixamorig:Hips
{
	OFFSET 0.000000 201.639420 0.000000
	CHANNELS 6 Xposition Yposition Zposition Xrotation Yrotation Zrotation
	JOINT mixamorig:Spine
	{
		OFFSET 0.006200 19.524994 -2.481800
		CHANNELS 3 Xrotation Yrotation Zrotation
		JOINT mixamorig:Spine1
		{
			OFFSET -0.000900 22.835007 -2.825400
			CHANNELS 3 Xrotation Yrotation Zrotation
			JOINT mixamorig:Spine2
			{
				OFFSET -0.020600 26.552490 -3.193300
				CHANNELS 3 Xrotation Yrotation Zrotation
				JOINT mixamorig:Neck
				{
					OFFSET -0.060000 30.701813 1.352200
					CHANNELS 3 Xrotation Yrotation Zrotation
					JOINT mixamorig:Head
					{
						OFFSET -0.087200 22.547607 3.670900
						CHANNELS 3 Xrotation Yrotation Zrotation
						JOINT mixamorig:HeadTop_End
						{
							OFFSET -0.830600 40.355194 7.893500
							CHANNELS 3 Xrotation Yrotation Zrotation
							End Site
							{
								OFFSET 0.000000 30.592346 0.000000
							}
						}
						JOINT mixamorig:RightEye
						{
							OFFSET -6.302100 18.118591 16.197100
							CHANNELS 3 Xrotation Yrotation Zrotation
							End Site
							{
								OFFSET 0.000000 30.592346 0.000000
							}
						}
						JOINT mixamorig:LeftEye
						{
							OFFSET 6.741500 18.382690 16.401899
							CHANNELS 3 Xrotation Yrotation Zrotation
							End Site
							{
								OFFSET 0.000000 30.592346 0.000000
							}
						}
					}
				}
				JOINT mixamorig:LeftShoulder
				{
					OFFSET 11.924900 18.230499 1.425400
					CHANNELS 3 Xrotation Yrotation Zrotation
					JOINT mixamorig:LeftArm
					{
						OFFSET 25.435989 -0.697632 -5.229300
						CHANNELS 3 Xrotation Yrotation Zrotation
						JOINT mixamorig:LeftForeArm
						{
							OFFSET 54.684776 0.000000 0.000000
							CHANNELS 3 Xrotation Yrotation Zrotation
							JOINT mixamorig:LeftHand
							{
								OFFSET 55.098175 0.000000 0.000000
								CHANNELS 3 Xrotation Yrotation Zrotation
								JOINT mixamorig:LeftHandMiddle1
								{
									OFFSET 23.369751 0.000000 0.000000
									CHANNELS 3 Xrotation Yrotation Zrotation
									JOINT mixamorig:LeftHandMiddle2
									{
										OFFSET 6.378677 0.000000 0.000000
										CHANNELS 3 Xrotation Yrotation Zrotation
										JOINT mixamorig:LeftHandMiddle3
										{
											OFFSET 6.148331 0.000000 0.000000
											CHANNELS 3 Xrotation Yrotation Zrotation
											JOINT mixamorig:LeftHandMiddle4
											{
												OFFSET 6.582504 0.000000 0.000000
												CHANNELS 3 Xrotation Yrotation Zrotation
												End Site
												{
													OFFSET -1.168900 6.395691 1.028606
												}
											}
										}
									}
								}
								JOINT mixamorig:LeftHandThumb1
								{
									OFFSET 7.235672 -3.848206 5.434273
									CHANNELS 3 Xrotation Yrotation Zrotation
									JOINT mixamorig:LeftHandThumb2
									{
										OFFSET 6.568451 -3.792297 3.792300
										CHANNELS 3 Xrotation Yrotation Zrotation
										JOINT mixamorig:LeftHandThumb3
										{
											OFFSET 6.063080 -3.500519 3.500518
											CHANNELS 3 Xrotation Yrotation Zrotation
											JOINT mixamorig:LeftHandThumb4
											{
												OFFSET 4.793182 -2.767334 2.767349
												CHANNELS 3 Xrotation Yrotation Zrotation
												End Site
												{
													OFFSET 0.101639 6.054260 1.275483
												}
											}
										}
									}
								}
								JOINT mixamorig:LeftHandIndex1
								{
									OFFSET 23.101074 -0.309540 4.992809
									CHANNELS 3 Xrotation Yrotation Zrotation
									JOINT mixamorig:LeftHandIndex2
									{
										OFFSET 6.226883 0.000000 0.000000
										CHANNELS 3 Xrotation Yrotation Zrotation
										JOINT mixamorig:LeftHandIndex3
										{
											OFFSET 6.094330 0.000000 0.000000
											CHANNELS 3 Xrotation Yrotation Zrotation
											JOINT mixamorig:LeftHandIndex4
											{
												OFFSET 5.482605 0.000000 0.000000
												CHANNELS 3 Xrotation Yrotation Zrotation
												End Site
												{
													OFFSET -1.427902 5.233032 0.797164
												}
											}
										}
									}
								}
								JOINT mixamorig:LeftHandRing1
								{
									OFFSET 22.299240 0.021149 -3.964172
									CHANNELS 3 Xrotation Yrotation Zrotation
									JOINT mixamorig:LeftHandRing2
									{
										OFFSET 6.321869 0.000000 0.000000
										CHANNELS 3 Xrotation Yrotation Zrotation
										JOINT mixamorig:LeftHandRing3
										{
											OFFSET 5.899796 0.000000 0.000000
											CHANNELS 3 Xrotation Yrotation Zrotation
											JOINT mixamorig:LeftHandRing4
											{
												OFFSET 6.517899 0.000000 0.000000
												CHANNELS 3 Xrotation Yrotation Zrotation
												End Site
												{
													OFFSET -1.637299 6.232208 0.980890
												}
											}
										}
									}
								}
								JOINT mixamorig:LeftHandPinky1
								{
									OFFSET 20.463791 -0.302338 -8.562233
									CHANNELS 3 Xrotation Yrotation Zrotation
									JOINT mixamorig:LeftHandPinky2
									{
										OFFSET 6.908646 0.000000 0.000000
										CHANNELS 3 Xrotation Yrotation Zrotation
										JOINT mixamorig:LeftHandPinky3
										{
											OFFSET 4.622849 0.000000 0.000000
											CHANNELS 3 Xrotation Yrotation Zrotation
											JOINT mixamorig:LeftHandPinky4
											{
												OFFSET 5.216080 0.000000 0.000000
												CHANNELS 3 Xrotation Yrotation Zrotation
												End Site
												{
													OFFSET -0.606308 5.116241 0.814926
												}
											}
										}
									}
								}
							}
						}
					}
				}
				JOINT mixamorig:RightShoulder
				{
					OFFSET -12.001300 18.284088 1.348900
					CHANNELS 3 Xrotation Yrotation Zrotation
					JOINT mixamorig:RightArm
					{
						OFFSET -25.308500 -0.751312 -5.164599
						CHANNELS 3 Xrotation Yrotation Zrotation
						JOINT mixamorig:RightForeArm
						{
							OFFSET -54.684429 0.000000 0.000000
							CHANNELS 3 Xrotation Yrotation Zrotation
							JOINT mixamorig:RightHand
							{
								OFFSET -55.150291 0.000000 0.000000
								CHANNELS 3 Xrotation Yrotation Zrotation
								JOINT mixamorig:RightHandMiddle1
								{
									OFFSET -23.317566 0.000000 0.000000
									CHANNELS 3 Xrotation Yrotation Zrotation
									JOINT mixamorig:RightHandMiddle2
									{
										OFFSET -6.378403 0.000000 0.000000
										CHANNELS 3 Xrotation Yrotation Zrotation
										JOINT mixamorig:RightHandMiddle3
										{
											OFFSET -6.148193 0.000000 0.000000
											CHANNELS 3 Xrotation Yrotation Zrotation
											JOINT mixamorig:RightHandMiddle4
											{
												OFFSET -6.583389 0.000000 0.000000
												CHANNELS 3 Xrotation Yrotation Zrotation
												End Site
												{
													OFFSET 1.171692 6.395905 1.029786
												}
											}
										}
									}
								}
								JOINT mixamorig:RightHandThumb1
								{
									OFFSET -7.190521 -3.860474 5.435846
									CHANNELS 3 Xrotation Yrotation Zrotation
									JOINT mixamorig:RightHandThumb2
									{
										OFFSET -6.567429 -3.791718 3.791708
										CHANNELS 3 Xrotation Yrotation Zrotation
										JOINT mixamorig:RightHandThumb3
										{
											OFFSET -6.062469 -3.500153 3.500166
											CHANNELS 3 Xrotation Yrotation Zrotation
											JOINT mixamorig:RightHandThumb4
											{
												OFFSET -4.792618 -2.767029 2.767022
												CHANNELS 3 Xrotation Yrotation Zrotation
												End Site
												{
													OFFSET -0.100327 6.053253 1.276754
												}
											}
										}
									}
								}
								JOINT mixamorig:RightHandIndex1
								{
									OFFSET -23.048981 -0.310791 4.992554
									CHANNELS 3 Xrotation Yrotation Zrotation
									JOINT mixamorig:RightHandIndex2
									{
										OFFSET -6.227539 0.000000 0.000000
										CHANNELS 3 Xrotation Yrotation Zrotation
										JOINT mixamorig:RightHandIndex3
										{
											OFFSET -6.095047 0.000000 0.000000
											CHANNELS 3 Xrotation Yrotation Zrotation
											JOINT mixamorig:RightHandIndex4
											{
												OFFSET -5.484772 0.000000 0.000000
												CHANNELS 3 Xrotation Yrotation Zrotation
												End Site
												{
													OFFSET 1.420593 5.237305 0.797056
												}
											}
										}
									}
								}
								JOINT mixamorig:RightHandRing1
								{
									OFFSET -22.246323 0.020569 -3.963762
									CHANNELS 3 Xrotation Yrotation Zrotation
									JOINT mixamorig:RightHandRing2
									{
										OFFSET -6.322128 0.000000 0.000000
										CHANNELS 3 Xrotation Yrotation Zrotation
										JOINT mixamorig:RightHandRing3
										{
											OFFSET -5.900024 0.000000 0.000000
											CHANNELS 3 Xrotation Yrotation Zrotation
											JOINT mixamorig:RightHandRing4
											{
												OFFSET -6.518356 0.000000 0.000000
												CHANNELS 3 Xrotation Yrotation Zrotation
												End Site
												{
													OFFSET 1.636398 6.232697 0.982186
												}
											}
										}
									}
								}
								JOINT mixamorig:RightHandPinky1
								{
									OFFSET -20.411011 -0.303314 -8.561701
									CHANNELS 3 Xrotation Yrotation Zrotation
									JOINT mixamorig:RightHandPinky2
									{
										OFFSET -6.907349 0.000000 0.000000
										CHANNELS 3 Xrotation Yrotation Zrotation
										JOINT mixamorig:RightHandPinky3
										{
											OFFSET -4.623840 0.000000 0.000000
											CHANNELS 3 Xrotation Yrotation Zrotation
											JOINT mixamorig:RightHandPinky4
											{
												OFFSET -5.218353 0.000000 0.000000
												CHANNELS 3 Xrotation Yrotation Zrotation
												End Site
												{
													OFFSET 0.602097 5.118835 0.816273
												}
											}
										}
									}
								}
							}
						}
					}
				}
			}
		}
	}
	JOINT mixamorig:LeftUpLeg
	{
		OFFSET 18.168400 -13.561905 -0.039000
		CHANNELS 3 Xrotation Yrotation Zrotation
		JOINT mixamorig:LeftLeg
		{
			OFFSET 0.577358 -80.825211 -3.695000
			CHANNELS 3 Xrotation Yrotation Zrotation
			JOINT mixamorig:LeftFoot
			{
				OFFSET -0.577356 -83.370262 -6.520700
				CHANNELS 3 Xrotation Yrotation Zrotation
				JOINT mixamorig:LeftToeBase
				{
					OFFSET 0.750401 -20.798306 25.135401
					CHANNELS 3 Xrotation Yrotation Zrotation
					JOINT mixamorig:LeftToe_End
					{
						OFFSET -0.000500 0.001200 19.917799
						CHANNELS 3 Xrotation Yrotation Zrotation
						End Site
						{
							OFFSET 0.000000 19.917805 0.000000
						}
					}
				}
			}
		}
	}
	JOINT mixamorig:RightUpLeg
	{
		OFFSET -18.162500 -13.585098 -0.041000
		CHANNELS 3 Xrotation Yrotation Zrotation
		JOINT mixamorig:RightLeg
		{
			OFFSET -0.595024 -80.945297 -3.631900
			CHANNELS 3 Xrotation Yrotation Zrotation
			JOINT mixamorig:RightFoot
			{
				OFFSET 0.595024 -83.218193 -6.561200
				CHANNELS 3 Xrotation Yrotation Zrotation
				JOINT mixamorig:RightToeBase
				{
					OFFSET -0.753601 -20.807106 25.115000
					CHANNELS 3 Xrotation Yrotation Zrotation
					JOINT mixamorig:RightToe_End
					{
						OFFSET 0.000299 0.001700 19.918200
						CHANNELS 3 Xrotation Yrotation Zrotation
						End Site
						{
							OFFSET 0.000000 19.918203 0.000000
						}
					}
				}
			}
		}
	}
}
MOTION
Frames: 5
Frame Time: 0.033333
0.151637 195.014191 -0.136975 -4.070373 -41.335468 0.468487 2.924919 -0.186991 -0.437457 5.848338 -0.390389 -0.876004 5.848343 -0.390396 -0.876003 -0.883997 26.118213 -5.085118 -12.133239 13.409293 0.401835 -0.000000 0.000000 -0.000000 -0.000000 0.000000 -0.000000 -0.000000 0.000000 -0.000000 -18.935199 7.366257 -4.623252 -4.189726 -19.755622 -74.317321 -22.453202 -68.272590 -27.042524 -100.597929 -26.404458 17.629857 -0.349222 -1.566820 -62.979241 -6.177628 -6.585484 -60.286166 -0.000003 -0.000004 0.000001 -0.000001 0.000001 0.000001 3.592075 4.185680 -5.133817 1.252894 4.302591 1.889377 0.000005 -0.000004 -0.000003 -0.000001 0.000000 0.000000 7.554897 5.560387 -33.410383 -14.917823 -6.767429 -80.641913 -0.000009 0.000005 0.000005 -0.000001 0.000001 -0.000002 -5.286449 4.624248 -73.484694 0.757944 -3.521222 -58.282865 -0.000000 0.000004 0.000004 -0.000001 0.000001 0.000000 -16.248805 1.424888 -86.150576 2.608788 -7.578016 -55.784713 -0.000005 -0.000007 -0.000008 -0.000001 -0.000002 0.000000 14.829374 0.115992 -0.444131 3.392399 38.346752 41.241645 -3.479760 115.438038 -0.032969 -33.753016 -20.046691 5.024220 3.631132 5.779713 48.858812 -9.397580 -0.919665 110.759782 0.000012 -0.000004 0.000002 0.000001 0.000002 0.000000 15.407455 -4.518698 17.011011 11.550408 4.015418 -20.411407 0.000007 -0.000005 0.000000 0.000000 0.000001 0.000001 1.857053 -0.976107 4.781774 -1.775922 -0.095291 22.317061 0.000000 -0.000000 0.000001 0.000001 -0.000001 0.000000 -8.676864 -5.659694 54.892301 -4.714137 8.864035 96.803732 0.000007 0.000006 0.000008 -0.000001 -0.000003 0.000001 -12.562977 0.077586 69.885307 -3.484574 14.093114 79.770537 0.000000 -0.000002 0.000002 0.000000 -0.000000 0.000001 -26.300637 39.221333 20.074821 25.157212 6.820022 -0.562241 -0.300820 0.865926 -2.249019 0.002989 -0.026193 0.062611 0.000000 0.000001 0.000000 -4.770554 5.118533 -11.734057 25.671380 0.498075 0.975348 -14.859579 -18.126103 8.516447 -0.020497 -0.187025 0.446699 -0.000000 0.000003 0.000000 
-1.129587 195.153458 0.057808 -4.074315 -41.079357 0.564937 2.877375 -0.194331 -0.481658 5.753070 -0.405673 -0.957961 5.753069 -0.405671 -0.957960 -0.713021 26.066739 -5.039019 -11.893979 13.122626 0.538279 -0.000000 0.000000 0.000000 -0.000000 0.000000 0.000000 -0.000000 0.000000 0.000000 -18.940982 7.462336 -4.525014 -3.623044 -19.781252 -73.873810 -23.603385 -68.977917 -28.251582 -100.468613 -26.886095 17.815217 -0.047409 -1.512199 -63.199570 -6.173778 -6.586261 -60.265457 -0.000002 -0.000003 -0.000001 0.000001 0.000000 -0.000000 3.690922 4.104834 -4.976194 1.305857 4.292043 1.799393 0.000002 -0.000006 -0.000001 0.000000 0.000003 0.000001 7.642222 5.590914 -33.792330 -14.916609 -6.768378 -80.636701 -0.000004 0.000005 0.000007 0.000001 -0.000000 -0.000001 -5.282042 4.628545 -73.820275 0.758871 -3.515249 -58.208559 -0.000005 0.000003 0.000003 -0.000001 -0.000001 -0.000000 -16.223062 1.415074 -86.162830 2.608807 -7.578142 -55.785632 -0.000005 -0.000004 -0.000005 0.000000 0.000001 0.000000 14.828535 0.199121 -0.397841 3.625942 38.399334 41.165776 -3.477123 115.404953 -0.036563 -33.588709 -19.632672 5.345892 3.508951 5.902713 49.268897 -9.400983 -0.925342 110.819471 0.000012 -0.000003 0.000002 0.000001 0.000001 -0.000000 15.306367 -4.322565 16.886927 11.498760 4.104125 -20.418205 0.000010 -0.000006 0.000001 -0.000001 0.000001 0.000000 1.863022 -0.961228 4.666401 -1.767329 -0.097114 22.245901 -0.000001 -0.000002 -0.000004 -0.000000 -0.000001 -0.000002 -8.690596 -5.652916 55.018362 -4.706164 8.861199 96.727063 0.000004 -0.000002 0.000008 0.000004 -0.000004 0.000004 -12.544443 0.036405 69.943931 -3.478151 14.084080 79.695631 -0.000001 -0.000002 0.000001 -0.000003 -0.000003 0.000002 -25.488717 38.699090 19.700222 24.530551 6.618809 -0.547244 0.022299 1.390358 -2.697700 0.158711 -0.026316 0.062232 -0.000000 0.000000 0.000000 -4.151272 5.017597 -11.490508 25.269987 0.522916 0.963013 -15.145045 -18.487090 8.141063 -0.016455 -0.187827 0.448578 0.000000 0.000002 0.000000 
-2.395829 195.256302 0.084335 -4.249041 -40.482067 0.757533 2.887805 -0.257512 -0.557860 5.773170 -0.534671 -1.091319 5.773168 -0.534664 -1.091318 -0.711159 26.019145 -4.902792 -11.622560 12.848596 0.613274 0.000000 0.000000 -0.000000 0.000000 0.000000 -0.000000 0.000000 0.000000 -0.000000 -18.938351 7.649750 -4.375557 -3.293205 -20.252078 -73.262597 -24.773680 -69.603316 -29.478956 -100.644388 -27.531827 17.938213 0.286199 -1.452528 -63.391846 -6.172561 -6.586514 -60.258914 -0.000001 -0.000004 -0.000002 0.000001 0.000001 -0.000000 3.773280 4.216923 -4.902682 1.355162 4.282113 1.715623 0.000004 -0.000006 -0.000002 0.000003 0.000001 -0.000002 7.761934 5.696771 -34.045669 -14.918364 -6.766982 -80.643552 -0.000007 0.000006 0.000007 -0.000001 0.000002 -0.000003 -5.311948 4.628699 -74.114246 0.760203 -3.506472 -58.099843 -0.000005 0.000006 0.000006 -0.000000 -0.000000 -0.000001 -16.208637 1.409545 -86.169673 2.608819 -7.578109 -55.785273 -0.000005 -0.000008 -0.000004 -0.000001 0.000001 0.000002 14.828926 0.230070 -0.372020 3.637476 38.458254 41.219604 -3.478001 115.405035 -0.036027 -33.388560 -19.210074 5.660385 3.384872 6.023250 49.702662 -9.403051 -0.928849 110.856163 0.000012 -0.000003 0.000002 0.000001 -0.000004 -0.000002 15.215448 -4.124441 16.734957 11.467590 4.157616 -20.421791 0.000008 -0.000004 0.000003 0.000001 -0.000000 0.000002 1.875584 -0.961406 4.514754 -1.769442 -0.096776 22.262786 -0.000002 0.000001 -0.000003 0.000001 0.000001 0.000002 -8.695416 -5.661369 55.166997 -4.696364 8.857731 96.632704 0.000005 0.000003 0.000008 0.000000 -0.000005 0.000004 -12.534429 -0.011240 70.051643 -3.478933 14.085239 79.704879 -0.000002 0.000001 0.000001 0.000002 0.000003 -0.000000 -23.840806 36.937779 18.302499 23.702387 6.747759 -0.513459 0.532409 2.704016 -3.277582 0.674686 -0.026644 0.060993 0.000000 -0.000001 0.000000 -3.452298 4.909530 -11.371346 25.117706 0.493805 0.956194 -15.574964 -19.101888 7.723084 -0.035399 -0.187856 0.448905 -0.000000 0.000002 0.000000 
-3.490477 195.186096 0.071262 -4.723763 -39.286630 0.952227 2.968218 -0.380506 -0.648992 5.932526 -0.784475 -1.244645 5.932526 -0.784472 -1.244645 -0.905253 25.917182 -4.363476 -11.227813 12.304922 0.348167 -0.000000 -0.000000 -0.000000 -0.000000 -0.000000 -0.000000 -0.000000 -0.000000 -0.000000 -18.932055 7.913671 -4.163463 -3.278729 -21.131641 -72.611488 -25.938241 -70.106380 -30.685632 -101.037957 -28.254445 17.956509 0.664583 -1.385262 -63.554569 -6.164490 -6.588123 -60.215590 -0.000003 -0.000003 -0.000002 0.000001 0.000000 -0.000001 3.832563 4.610435 -4.951972 1.400285 4.272927 1.638816 0.000004 -0.000001 -0.000000 0.000002 0.000004 0.000001 7.917555 5.872007 -34.213603 -14.914194 -6.770139 -80.626538 -0.000002 0.000007 0.000008 0.000000 0.000001 -0.000003 -5.393281 4.623089 -74.336022 0.762132 -3.493375 -57.938528 -0.000005 0.000003 0.000004 -0.000001 0.000000 -0.000002 -16.203411 1.407529 -86.172166 2.609069 -7.579365 -55.795662 -0.000004 -0.000007 -0.000006 0.000000 0.000000 0.000001 14.835272 0.193436 -0.369390 3.507793 38.482990 41.301399 -3.483413 115.524440 -0.029703 -33.152458 -18.735419 5.851310 3.228611 6.172693 50.227196 -9.404603 -0.931476 110.883634 0.000011 -0.000003 0.000004 0.000000 0.000000 -0.000001 15.092363 -3.839920 16.502246 11.445907 4.194837 -20.424593 0.000009 -0.000007 0.000001 0.000002 0.000001 0.000000 1.896066 -0.978366 4.314340 -1.775302 -0.095675 22.310524 0.000000 0.000002 -0.000006 -0.000000 0.000001 -0.000002 -8.699080 -5.674194 55.343083 -4.686425 8.854163 96.536978 0.000003 0.000008 0.000008 0.000000 -0.000003 0.000004 -12.520072 -0.074047 70.190958 -3.481725 14.089225 79.737288 -0.000003 -0.000001 -0.000000 -0.000002 0.000001 0.000002 -22.131678 32.084810 16.112491 24.463082 8.438265 -0.456508 0.464845 3.848546 -3.493782 0.942886 -0.026751 0.060346 0.000000 0.000002 -0.000000 -2.690140 4.324492 -11.501358 25.439378 0.356836 0.959989 -16.264296 -19.674469 7.383677 -0.142164 -0.186775 0.447594 -0.000000 0.000000 -0.000000 
-4.232609 194.721466 0.346432 -5.506901 -37.642084 1.119663 3.114480 -0.505367 -0.754036 6.223644 -1.037832 -1.393979 6.223647 -1.037850 -1.393976 -1.238931 25.701577 -3.247789 -10.752913 11.238417 -0.389233 0.000000 -0.000000 -0.000000 0.000000 -0.000000 -0.000000 0.000000 -0.000000 -0.000000 -18.919907 8.230673 -3.926471 -3.452255 -22.238575 -72.097742 -27.220450 -70.613098 -32.028280 -101.488128 -29.084172 17.949169 1.119734 -1.305562 -63.721314 -6.152702 -6.590455 -60.152554 -0.000001 -0.000002 -0.000001 -0.000000 0.000000 0.000000 3.874240 5.365397 -5.145091 1.445096 4.263805 1.562594 0.000005 -0.000003 0.000002 0.000000 0.000002 -0.000000 8.131464 6.145934 -34.306507 -14.917241 -6.767669 -80.638736 -0.000003 0.000006 0.000006 -0.000000 -0.000000 -0.000001 -5.528354 4.612894 -74.555599 0.764741 -3.475065 -57.713343 -0.000004 0.000002 0.000002 -0.000002 -0.000002 -0.000000 -16.205881 1.408494 -86.171012 2.609591 -7.582575 -55.823030 -0.000005 -0.000006 -0.000004 0.000000 -0.000000 0.000001 14.853274 0.016210 -0.431141 3.293363 38.340488 41.401533 -3.493798 115.883749 -0.017057 -32.876747 -18.338493 6.066250 3.023190 6.364283 50.900800 -9.406114 -0.934009 110.910374 0.000011 -0.000000 0.000004 0.000001 -0.000001 -0.000000 14.910433 -3.422731 16.171030 11.412778 4.252002 -20.430149 0.000007 -0.000007 0.000001 -0.000002 0.000000 -0.000002 1.915661 -0.984835 4.094736 -1.781008 -0.094610 22.357163 0.000000 -0.000001 0.000004 -0.000000 -0.000001 0.000001 -8.703797 -5.688325 55.545735 -4.678643 8.851397 96.462256 0.000005 -0.000001 0.000009 -0.000001 -0.000001 0.000002 -12.499491 -0.156483 70.369451 -3.485500 14.094557 79.780865 0.000004 -0.000003 -0.000001 -0.000002 -0.000004 0.000001 -20.904675 22.915061 12.965495 27.794524 6.698953 -0.675917 -0.267628 4.553938 -3.054508 0.100722 -0.026181 0.062378 0.000000 0.000000 0.000000 -2.129486 2.752850 -12.156013 26.607651 0.212103 0.993326 -17.371015 -19.556746 7.331906 -0.385329 -0.184514 0.445363 0.000000 0.000001 0.000000 
